<svg width="16" height="16" viewBox="0 0 16 16" fill="none" xmlns="http://www.w3.org/2000/svg">
<path d="M7.80527 3.8013C5.58847 3.8013 3.79941 5.59036 3.79941 7.80716C3.79941 10.024 5.58847 11.813 7.80527 11.813C10.0221 11.813 11.8111 10.024 11.8111 7.80716C11.8111 5.59036 10.0221 3.8013 7.80527 3.8013ZM7.80527 10.4107C6.37168 10.4107 5.20175 9.24075 5.20175 7.80716C5.20175 6.37357 6.37168 5.20364 7.80527 5.20364C9.23886 5.20364 10.4088 6.37357 10.4088 7.80716C10.4088 9.24075 9.23886 10.4107 7.80527 10.4107ZM11.9752 2.70364C11.4576 2.70364 11.0396 3.12161 11.0396 3.63919C11.0396 4.15677 11.4576 4.57474 11.9752 4.57474C12.4928 4.57474 12.9107 4.15872 12.9107 3.63919C12.9109 3.51629 12.8868 3.39457 12.8398 3.28099C12.7929 3.16742 12.724 3.06422 12.6371 2.97732C12.5502 2.89041 12.447 2.82151 12.3334 2.77454C12.2198 2.72758 12.0981 2.70349 11.9752 2.70364ZM15.6139 7.80716C15.6139 6.72904 15.6236 5.66068 15.5631 4.5845C15.5025 3.3345 15.2174 2.22513 14.3033 1.31107C13.3873 0.395051 12.2799 0.111848 11.0299 0.0513011C9.95175 -0.00924574 8.88339 0.00051991 7.80722 0.00051991C6.7291 0.00051991 5.66074 -0.00924574 4.58457 0.0513011C3.33457 0.111848 2.22519 0.397004 1.31113 1.31107C0.395112 2.22708 0.111909 3.3345 0.0513622 4.5845C-0.00918471 5.66263 0.000580946 6.73099 0.000580946 7.80716C0.000580946 8.88333 -0.00918471 9.95364 0.0513622 11.0298C0.111909 12.2798 0.397065 13.3892 1.31113 14.3033C2.22714 15.2193 3.33457 15.5025 4.58457 15.563C5.66269 15.6236 6.73105 15.6138 7.80722 15.6138C8.88535 15.6138 9.95371 15.6236 11.0299 15.563C12.2799 15.5025 13.3893 15.2173 14.3033 14.3033C15.2193 13.3872 15.5025 12.2798 15.5631 11.0298C15.6256 9.95364 15.6139 8.88529 15.6139 7.80716ZM13.8951 12.4126C13.7525 12.7681 13.5807 13.0337 13.3053 13.3072C13.0299 13.5826 12.7662 13.7544 12.4107 13.897C11.3834 14.3052 8.94394 14.2134 7.80527 14.2134C6.6666 14.2134 4.22519 14.3052 3.19785 13.899C2.84238 13.7564 2.57675 13.5845 2.30332 13.3091C2.02793 13.0337 1.85605 12.7701 1.71347 12.4146C1.30722 11.3853 1.39902 8.94583 1.39902 7.80716C1.39902 6.66849 1.30722 4.22708 1.71347 3.19974C1.85605 2.84427 2.02793 2.57864 2.30332 2.30521C2.57871 2.03177 2.84238 1.85794 3.19785 1.71536C4.22519 1.30911 6.6666 1.40091 7.80527 1.40091C8.94394 1.40091 11.3853 1.30911 12.4127 1.71536C12.7682 1.85794 13.0338 2.02982 13.3072 2.30521C13.5826 2.5806 13.7545 2.84427 13.8971 3.19974C14.3033 4.22708 14.2115 6.66849 14.2115 7.80716C14.2115 8.94583 14.3033 11.3853 13.8951 12.4126Z" fill="white"/>
</svg>
